<svg id="圖層_1" data-name="圖層 1" xmlns="http://www.w3.org/2000/svg" viewBox="0 0 50 50"><defs><style>.cls-1{fill:#fff;}</style></defs><path class="cls-1" d="M25,0A25,25,0,1,0,50,25,25,25,0,0,0,25,0Zm0,48A23,23,0,1,1,48,25,23,23,0,0,1,25,48Z"/><path class="cls-1" d="M32.49,10H28.6c-4.36,0-7.18,2.89-7.18,7.37v3.4H17.51a.61.61,0,0,0-.61.61v4.93a.61.61,0,0,0,.61.61h3.91V39.37A.61.61,0,0,0,22,40h5.1a.61.61,0,0,0,.61-.61V26.94H32.3a.61.61,0,0,0,.61-.61V21.4a.61.61,0,0,0-.61-.61H27.74V17.91c0-1.38.33-2.09,2.13-2.09h2.62a.61.61,0,0,0,.61-.61V10.64A.61.61,0,0,0,32.49,10Z"/></svg>