<svg id="圖層_1" data-name="圖層 1" xmlns="http://www.w3.org/2000/svg" viewBox="0 0 50 50"><defs><style>.cls-1{fill:#fff;}</style></defs><path class="cls-1" d="M25,0A25,25,0,1,0,50,25,25,25,0,0,0,25,0Zm0,48A23,23,0,1,1,48,25,23,23,0,0,1,25,48Z"/><path class="cls-1" d="M32.73,10.94a37.92,37.92,0,0,0-5.44-.29c-3.11,0-6.24,0-9.34.2a7.4,7.4,0,0,0-7,7c-.19,2.36-.2,4.74-.28,7.12.09,2.38.09,4.77.29,7.14A7.35,7.35,0,0,0,17.37,39a40,40,0,0,0,5.48.29c3.1,0,6.21,0,9.3-.21a7.2,7.2,0,0,0,6.31-4.33A8.85,8.85,0,0,0,39.27,31q.07-5,.08-10.08a30.12,30.12,0,0,0-.18-3.16A7.4,7.4,0,0,0,32.73,10.94Zm3.9,20.48a4.93,4.93,0,0,1-5.11,5.11c-4.32.12-8.64.11-12.95,0a5,5,0,0,1-5.11-5.07c-.13-2.17-.14-4.35-.2-6.52s.07-4.33.2-6.48a5.05,5.05,0,0,1,5.1-5.1,113.45,113.45,0,0,1,13,0,5,5,0,0,1,5,5.06Q36.8,24.92,36.63,31.42Z"/><path class="cls-1" d="M25,17.6A7.35,7.35,0,1,0,32.4,25,7.33,7.33,0,0,0,25,17.6Zm0,12.13A4.78,4.78,0,1,1,29.82,25,4.8,4.8,0,0,1,25,29.73Z"/><path class="cls-1" d="M32.71,15.59a1.71,1.71,0,1,0,1.7,1.7A1.69,1.69,0,0,0,32.71,15.59Z"/></svg>