<svg id="圖層_1" data-name="圖層 1" xmlns="http://www.w3.org/2000/svg" viewBox="0 0 50 50"><defs><style>.cls-1{fill:#fff;}</style></defs><path class="cls-1" d="M23.68.1h2.93c.12,0,.25.07.37.08a23.07,23.07,0,0,1,8.71,2.26,24.69,24.69,0,0,1,14,18.26c.19,1,.22,1.93.39,2.89v2.92a3.15,3.15,0,0,0-.09.42,23,23,0,0,1-2.85,9.83c-4.6,8.17-11.6,12.62-21,13.2a22.81,22.81,0,0,1-12.7-2.87C5.28,42.51.82,35.49.24,26.1A23.17,23.17,0,0,1,3.12,13.35,24.66,24.66,0,0,1,20.8.48C21.75.29,22.73.27,23.68.1ZM6.44,17.45a.93.93,0,0,0,.27.51A13.57,13.57,0,0,1,8,20.5a1.2,1.2,0,0,1-.16,1.21A9.38,9.38,0,0,0,22.73,33c.3-.33.44-.39.7,0,.52.84,1.1,1.65,1.68,2.52l2-3c.38.38.72.73,1.07,1.06A9.38,9.38,0,0,0,42.77,22.3c-1-1-.54-2,0-3,.27-.51.58-1,.87-1.51.06-.11.17-.2.16-.36a1.42,1.42,0,0,0-.65-.07c-1.17,0-2.34,0-3.51,0a4.77,4.77,0,0,1-3.4-.84.91.91,0,0,0-.17-.09A22.52,22.52,0,0,0,27,14,24.1,24.1,0,0,0,12.7,17.18a1.84,1.84,0,0,1-1,.27Z"/><path class="cls-1" d="M34.51,34.25A7.48,7.48,0,1,1,42,26.76,7.51,7.51,0,0,1,34.51,34.25Zm4.6-7.8a4.61,4.61,0,0,0-5-4.41,4.63,4.63,0,1,0,5,4.41Z"/><path class="cls-1" d="M15.73,19.26A7.48,7.48,0,1,1,8.29,26.8,7.49,7.49,0,0,1,15.73,19.26Zm4.57,7.36A4.64,4.64,0,0,0,11,26.7a4.64,4.64,0,0,0,9.28-.08Z"/><path class="cls-1" d="M16.39,17.27c3.18-2.21,13.89-2.19,17.43.05-4.65.66-7.54,3.27-8.67,7.89C24,20.56,21.1,17.91,16.39,17.27Z"/><path class="cls-1" d="M31.47,26.64a3,3,0,1,1,3,3A3,3,0,0,1,31.47,26.64Zm3,1.53A1.53,1.53,0,1,0,33,26.64,1.54,1.54,0,0,0,34.51,28.17Z"/><path class="cls-1" d="M12.63,26.65a3,3,0,1,1,3,3A3.07,3.07,0,0,1,12.63,26.65Zm3,1.54a1.56,1.56,0,0,0,1.57-1.53,1.58,1.58,0,0,0-1.59-1.56,1.55,1.55,0,0,0,0,3.09Z"/></svg>