<svg id="圖層_1" data-name="圖層 1" xmlns="http://www.w3.org/2000/svg" viewBox="0 0 50 50"><defs><style>.cls-1{fill:#0071bc;}</style></defs><path class="cls-1" d="M38.91,29.76a4.65,4.65,0,1,1-4.64,4.65A4.65,4.65,0,0,1,38.91,29.76Zm0,6.67a2,2,0,1,0-2-2A2,2,0,0,0,38.91,36.43Z"/><path class="cls-1" d="M11.64,29.76A4.65,4.65,0,1,1,7,34.41,4.65,4.65,0,0,1,11.64,29.76Zm0,6.67a2,2,0,1,0-2-2A2,2,0,0,0,11.64,36.43Z"/><path class="cls-1" d="M2.78,11H44.45a3.56,3.56,0,0,1,3.33,2.72l1.66,6.08a32.77,32.77,0,0,1,.56,5.5v6.38a2.79,2.79,0,0,1-2.78,2.78H44.39a5.48,5.48,0,1,0-11,0H17.12a5.48,5.48,0,0,0-11,0H2.78A2.79,2.79,0,0,1,0,31.63V13.72A2.78,2.78,0,0,1,2.78,11ZM38.46,22.66h6.47l-1-2.43a.83.83,0,1,1,1.53-.64l1.27,3a1.67,1.67,0,0,0,1.21-2l-1.5-5.95A2.59,2.59,0,0,0,44,12.61h-5.5V22.66Zm-12.35,0H36.8v-10H26.11Zm-12.35,0H24.45v-10H13.76ZM1.7,20.58a2.09,2.09,0,0,0,2.08,2.08h8.31v-10H3.78A2.09,2.09,0,0,0,1.7,14.69Z"/></svg>