<svg id="圖層_1" data-name="圖層 1" xmlns="http://www.w3.org/2000/svg" viewBox="0 0 50 50"><defs><style>.cls-1{fill:#8da3b5;}</style></defs><path class="cls-1" d="M25,0A25,25,0,1,0,50,25,25,25,0,0,0,25,0Zm0,48A23,23,0,1,1,48,25,23,23,0,0,1,25,48Z"/><path class="cls-1" d="M14.88,24.08a1.61,1.61,0,0,0,2.27,2.28,11.11,11.11,0,0,1,15.7,0,1.64,1.64,0,0,0,1.14.47,1.61,1.61,0,0,0,1.13-2.75A14.33,14.33,0,0,0,14.88,24.08Z"/><path class="cls-1" d="M19.22,28.42a1.61,1.61,0,1,0,2.27,2.28,5,5,0,0,1,7,0,1.6,1.6,0,0,0,1.13.47,1.64,1.64,0,0,0,1.14-.47,1.62,1.62,0,0,0,0-2.27A8.17,8.17,0,0,0,19.22,28.42Z"/><path class="cls-1" d="M25,32.06a2.14,2.14,0,1,0,2.14,2.14A2.14,2.14,0,0,0,25,32.06Z"/><path class="cls-1" d="M10.47,19.67a1.61,1.61,0,0,0,2.27,2.27,17.36,17.36,0,0,1,24.52,0,1.64,1.64,0,0,0,1.14.47,1.61,1.61,0,0,0,1.13-2.74A20.58,20.58,0,0,0,10.47,19.67Z"/></svg>