<svg id="圖層_1" data-name="圖層 1" xmlns="http://www.w3.org/2000/svg" viewBox="0 0 50 50"><defs><style>.cls-1{fill:#8da3b5;}</style></defs><path class="cls-1" d="M25,0A25,25,0,1,0,50,25,25,25,0,0,0,25,0Zm0,48A23,23,0,1,1,48,25,23,23,0,0,1,25,48Z"/><path class="cls-1" d="M29,31a.88.88,0,0,0-.82.94l.06.85A.88.88,0,1,0,30,32.68L30,31.83A.88.88,0,0,0,29,31Z"/><path class="cls-1" d="M34.16,29.66a.88.88,0,0,0-1.61.71l.32.73a.88.88,0,0,0,1.62-.71Z"/><path class="cls-1" d="M38.25,27.53A.88.88,0,0,0,37,28.74l.59.62a.88.88,0,0,0,1.25,0,.89.89,0,0,0,0-1.25Z"/><path class="cls-1" d="M28.93,36.39a.88.88,0,0,0-.84.92l0,.88a.89.89,0,1,0,1.77-.09l0-.88A.87.87,0,0,0,28.93,36.39Z"/><path class="cls-1" d="M34.05,35.15a.88.88,0,1,0-1.69.5l.24.79a.88.88,0,1,0,1.69-.5Z"/><path class="cls-1" d="M38.2,33.07a.88.88,0,0,0-1.51.91l.43.71a.87.87,0,0,0,1.21.3.89.89,0,0,0,.3-1.21Z"/><path class="cls-1" d="M42.93,31.66,42.31,31a.88.88,0,0,0-1.26,1.24l.62.63a.89.89,0,0,0,1.25,0A.88.88,0,0,0,42.93,31.66Z"/><path class="cls-1" d="M38.49,21.72l-.26-.6a2.35,2.35,0,0,0-2.52-1.36l-.16-.37a5.11,5.11,0,0,0-5.48-3l-.58-1.31a8.51,8.51,0,0,0-16.31,3.43V39.11a.89.89,0,0,0,.88.89h3.53a.88.88,0,0,0,.88-.89V18.52a3.22,3.22,0,0,1,6.17-1.3l.63,1.41A5.12,5.12,0,0,0,24,24.51l.17.37a2.35,2.35,0,0,0-.66,2.78l.26.6a2.61,2.61,0,0,0,3.45,1.32l9.92-4.42A2.6,2.6,0,0,0,38.49,21.72Zm-9-3.32a3.36,3.36,0,0,1,4.45,1.7l.13.3-8.29,3.69-.13-.3a3.35,3.35,0,0,1,1.7-4.44ZM21.7,13.53a5,5,0,0,0-5,5V38.23H15V18.52A6.75,6.75,0,0,1,27.87,15.8L28.39,17l-1.62.72-.51-1.17A5,5,0,0,0,21.7,13.53Zm14.75,10L26.53,28a.85.85,0,0,1-1.12-.43l-.26-.6a.58.58,0,0,1,.3-.77l10.39-4.63a.58.58,0,0,1,.77.3l.27.6A.84.84,0,0,1,36.45,23.55Z"/></svg>