<svg id="圖層_1" data-name="圖層 1" xmlns="http://www.w3.org/2000/svg" viewBox="0 0 50 50"><defs><style>.cls-1{fill:#fff;}</style></defs><path class="cls-1" d="M25,0A25,25,0,1,0,50,25,25,25,0,0,0,25,0Zm0,48A23,23,0,1,1,48,25,23,23,0,0,1,25,48Z"/><path class="cls-1" d="M35.85,13.88A17.21,17.21,0,0,0,25,10.22a17.21,17.21,0,0,0-10.85,3.66,11.64,11.64,0,0,0-4.59,9,11.53,11.53,0,0,0,4.13,8.66,16.66,16.66,0,0,0,9.08,3.91v3.37a.91.91,0,0,0,.91.91c1.56,0,5.8-1.93,9.38-4.68a23.23,23.23,0,0,0,5.09-5.26,12.31,12.31,0,0,0,2.29-6.91A11.64,11.64,0,0,0,35.85,13.88ZM19.48,26.74H16.41c-.48,0-.82-.28-.82-.67v-6.3c0-.39.36-.66.9-.66s.9.27.9.66V25.1h2.09c.39,0,.65.33.65.82S19.86,26.74,19.48,26.74Zm2.9-.67c0,.39-.38.67-.9.67s-.9-.27-.9-.67v-6.3c0-.39.36-.66.9-.66s.9.27.9.66Zm6.17,0c0,.39-.38.67-.9.67a1,1,0,0,1-1-.53l-1.57-2.95v2.81c0,.39-.38.67-.9.67s-.91-.27-.91-.67V19.78c0-.4.37-.67.91-.67s.84.19,1.18.82l1.36,2.63V19.77c0-.39.36-.66.9-.66s.9.27.9.66Zm3.92-3.91a.77.77,0,0,1,0,1.53h-1.2V25.1h2.47c.39,0,.67.35.67.83a.72.72,0,0,1-.67.81H30.29a.73.73,0,0,1-.82-.67V19.78a.74.74,0,0,1,.82-.67h3.45a.73.73,0,0,1,.67.82c0,.48-.28.83-.67.83H31.27v1.4Z"/></svg>