<svg id="圖層_1" data-name="圖層 1" xmlns="http://www.w3.org/2000/svg" viewBox="0 0 50 50"><defs><style>.cls-1{fill:#fff;}</style></defs><path class="cls-1" d="M25,0A25,25,0,1,0,50,25,25,25,0,0,0,25,0Zm0,48A23,23,0,1,1,48,25,23,23,0,0,1,25,48Z"/><path class="cls-1" d="M15.62,22a4.64,4.64,0,1,0,4.68,4.6A4.64,4.64,0,0,0,15.62,22Zm.06,7.66a3,3,0,1,1,3-3.06A3.07,3.07,0,0,1,15.68,29.68Z"/><path class="cls-1" d="M15.64,25.1a1.55,1.55,0,0,0,0,3.09,1.56,1.56,0,0,0,1.57-1.53A1.58,1.58,0,0,0,15.64,25.1Z"/><path class="cls-1" d="M34.08,22a4.63,4.63,0,1,0,5,4.41A4.61,4.61,0,0,0,34.08,22Zm.42,7.64a3,3,0,1,1,3-3A3.06,3.06,0,0,1,34.5,29.68Z"/><path class="cls-1" d="M42.77,22.3c-1-1-.54-2,0-3,.27-.51.58-1,.87-1.51.06-.11.17-.2.16-.36a1.42,1.42,0,0,0-.65-.07c-1.17,0-2.34,0-3.51,0a4.77,4.77,0,0,1-3.4-.84.91.91,0,0,0-.17-.09A22.52,22.52,0,0,0,27,14,24.1,24.1,0,0,0,12.7,17.18a1.84,1.84,0,0,1-1,.27H6.44a.93.93,0,0,0,.27.51A13.57,13.57,0,0,1,8,20.5a1.2,1.2,0,0,1-.16,1.21A9.38,9.38,0,0,0,22.73,33c.3-.33.44-.39.7,0,.52.84,1.1,1.65,1.68,2.52l2-3c.38.38.72.73,1.07,1.06A9.38,9.38,0,0,0,42.77,22.3ZM15.88,34.21a7.48,7.48,0,1,1,7.4-7.5A7.51,7.51,0,0,1,15.88,34.21Zm.51-16.94c3.18-2.21,13.89-2.19,17.43.05-4.65.66-7.54,3.27-8.67,7.89C24,20.56,21.1,17.91,16.39,17.27Zm18.12,17A7.48,7.48,0,1,1,42,26.76,7.51,7.51,0,0,1,34.51,34.25Z"/><path class="cls-1" d="M34.47,25.12A1.53,1.53,0,1,0,36,26.65,1.53,1.53,0,0,0,34.47,25.12Z"/></svg>