<svg id="圖層_1" data-name="圖層 1" xmlns="http://www.w3.org/2000/svg" viewBox="0 0 50 50"><defs><style>.cls-1{fill:#8da3b5;}</style></defs><path class="cls-1" d="M25,0A25,25,0,1,0,50,25,25,25,0,0,0,25,0Zm0,48A23,23,0,1,1,48,25,23,23,0,0,1,25,48Z"/><path class="cls-1" d="M22.32,14.21V35.36a.47.47,0,0,0,.94,0V14.21a.47.47,0,1,0-.94,0Z"/><path class="cls-1" d="M18.48,24.78A1.49,1.49,0,0,0,20,26.27a.23.23,0,0,0,.24-.23V23.53A.23.23,0,0,0,20,23.3,1.49,1.49,0,0,0,18.48,24.78Z"/><path class="cls-1" d="M25.38,23.53V26a.23.23,0,0,0,.23.23,1.49,1.49,0,1,0,0-3A.23.23,0,0,0,25.38,23.53Z"/><path class="cls-1" d="M39.67,28.38h-.54V26.2a4.38,4.38,0,1,0-8.75,0v2.18h-.55A1.64,1.64,0,0,0,28.19,30v7.66a1.64,1.64,0,0,0,1.64,1.64h9.84a1.64,1.64,0,0,0,1.64-1.64V30A1.64,1.64,0,0,0,39.67,28.38ZM35.48,34v1.66a.73.73,0,0,1-1.46,0V34a1.46,1.46,0,1,1,1.46,0Zm2.19-5.63H31.83V26.2a2.92,2.92,0,0,1,5.84,0Z"/><path class="cls-1" d="M27.19,37H10.64a.09.09,0,0,1-.07-.08V12.63a.08.08,0,0,1,.07-.07h24.3a.09.09,0,0,1,.08.07v8.22a5.37,5.37,0,0,1,1.88.42V12.63a2,2,0,0,0-2-2H10.64a2,2,0,0,0-2,2v24.3a2,2,0,0,0,2,2H27.49a2.74,2.74,0,0,1-.3-1.21Z"/></svg>