<svg id="圖層_1" data-name="圖層 1" xmlns="http://www.w3.org/2000/svg" viewBox="0 0 50 50"><defs><style>.cls-1{fill:#8da3b5;}</style></defs><path class="cls-1" d="M25,0A25,25,0,1,0,50,25,25,25,0,0,0,25,0Zm0,48A23,23,0,1,1,48,25,23,23,0,0,1,25,48Z"/><path class="cls-1" d="M23.84,17.61c-.39-4.26-3.9-7.44-7.77-7.1-4.54.39-6.9,4.58-6.57,8.42l.63,4,1.73,10.9A6.51,6.51,0,0,0,18,39.52l.49,0a6.45,6.45,0,0,0,5.58-6.74s0-.71,0-1.79C23.89,19.85,23.85,17.65,23.84,17.61Zm-7.65-5.73a5.68,5.68,0,0,1,5.41,3A14.29,14.29,0,0,0,20,14.59l-.61-.09,0,0a15.47,15.47,0,0,0-6.28.59v0l-.49.18c-.42.16-.83.32-1.19.49l-.1.06h0l-.19.09A5.73,5.73,0,0,1,16.19,11.88ZM11.45,22.44l-.26-1.63a11.64,11.64,0,0,1-.33-3.12A13.3,13.3,0,0,1,22.27,16.6c.21.73.21.84.27,4.7,0,.95,0,2.14.05,3.62l-6.84.6L12,25.85Zm9,10.4a2.79,2.79,0,0,1-2.25,3,2.84,2.84,0,0,1-2.74-2.6l-1-6.24,3.85-.34,2-.18Zm-2.05,5.28a5.06,5.06,0,0,1-5.18-4.5l-1-6.41,1.47-.12,1,6.3A3.67,3.67,0,0,0,18,36.67h.25a3.61,3.61,0,0,0,3-3.84l-.11-6.39.21,0,1.26-.11.11,6.49A5.06,5.06,0,0,1,18.41,38.12Z"/><path class="cls-1" d="M33.93,10.51c-3.87-.34-7.38,2.84-7.77,7.1,0,0-.05,2.24-.24,13.36,0,1.08,0,1.77,0,1.79a6.45,6.45,0,0,0,5.58,6.74l.49,0a6.51,6.51,0,0,0,6.18-5.69l1.73-10.9.63-4C40.83,15.09,38.47,10.9,33.93,10.51Zm2.84,23.11a5.06,5.06,0,0,1-5.18,4.5,5.06,5.06,0,0,1-4.32-5.33l.11-6.49,1.26.11.21,0-.11,6.39a3.61,3.61,0,0,0,3,3.84H32a3.67,3.67,0,0,0,3.35-3.28l1-6.3,1.47.12Zm-7.23-.78.11-6.34,2,.18,3.85.34-1,6.24a2.84,2.84,0,0,1-2.74,2.6A2.79,2.79,0,0,1,29.54,32.84Zm9.27-12-.26,1.63L38,25.85l-3.76-.33-6.84-.6c0-1.48,0-2.67.05-3.62.06-3.86.06-4,.27-4.7a13.3,13.3,0,0,1,11.41,1.09A11.64,11.64,0,0,1,38.81,20.81Zm-.21-5h0l-.1-.06c-.36-.17-.77-.33-1.19-.49l-.49-.18v0a15.47,15.47,0,0,0-6.28-.59l0,0-.61.09a14.29,14.29,0,0,0-1.56.34,5.61,5.61,0,0,1,10.39,1Z"/></svg>