<svg id="圖層_1" data-name="圖層 1" xmlns="http://www.w3.org/2000/svg" viewBox="0 0 50 50"><defs><style>.cls-1{fill:#8da3b5;}</style></defs><path class="cls-1" d="M25,0A25,25,0,1,0,50,25,25,25,0,0,0,25,0Zm0,48A23,23,0,1,1,48,25,23,23,0,0,1,25,48Z"/><path class="cls-1" d="M14.67,17.4a2.78,2.78,0,1,0,2.78-2.78A2.78,2.78,0,0,0,14.67,17.4Zm3.78,0a1,1,0,0,1-2,0,1,1,0,1,1,2,0Z"/><path class="cls-1" d="M38.94,10.89l-5.51,1.82L18.72,10.12a7.57,7.57,0,0,0-6.19,1.66,7.29,7.29,0,0,0-.44,10.83,7.62,7.62,0,0,0,4.67,2.15l1.37,7.86a3.18,3.18,0,0,0,2.77,2.62A5.54,5.54,0,0,0,26.42,40h0A5.64,5.64,0,0,0,32,34.33v-3a1.24,1.24,0,0,1,2.48,0v7.78a.89.89,0,1,0,1.77,0V31.33a3,3,0,0,0-6,0v3a3.88,3.88,0,0,1-3.8,3.9h0A3.81,3.81,0,0,1,22.64,35a3.2,3.2,0,0,0,1.82-3.46L23.15,23.9l2-.35,8.28-1.46,5.51,1.81a1,1,0,0,0,.28.05.87.87,0,0,0,.52-.17.89.89,0,0,0,.37-.72V11.73a.87.87,0,0,0-.37-.71A.88.88,0,0,0,38.94,10.89ZM22.71,31.82A1.44,1.44,0,0,1,22.4,33a1.47,1.47,0,0,1-1.11.51,1.44,1.44,0,0,1-1.42-1.2l-1.32-7.6,1.59-.28,1.26-.22Zm9.9-11.39-7.76,1.38-2.86.5h0l-1.83.33-.44.07c-1.06.19-1.52.26-1.77.29l-.43,0h0a5.88,5.88,0,0,1-4.17-1.68,5.51,5.51,0,0,1,.34-8.21,5.77,5.77,0,0,1,4.75-1.28l14.19,2.5Zm5.73,1.41-4-1.31V14.26l4-1.3Z"/></svg>