<svg id="圖層_1" data-name="圖層 1" xmlns="http://www.w3.org/2000/svg" viewBox="0 0 50 50"><defs><style>.cls-1{fill:#8da3b5;}</style></defs><path class="cls-1" d="M25,0A25,25,0,1,0,50,25,25,25,0,0,0,25,0Zm0,48A23,23,0,1,1,48,25,23,23,0,0,1,25,48Z"/><path class="cls-1" d="M39.86,26.61h-.28c-.31,0-.37-.09-.37-.38,0-2.69,0-11.12,0-11.12a1,1,0,0,0-1-1H10.78s0,10.25,0,12.25c0,.22-.06.3-.29.29h-.39a1,1,0,0,0-1,1v3.78a1,1,0,0,0,1,1h.39c.23,0,.29.07.29.3,0,1,0,2.07,0,2.07a1,1,0,0,0,.93,1.09,1,1,0,0,0,.93-1.07c0-.7,0-1.4,0-2.1,0-.24.07-.29.3-.29H37.06c.24,0,.31.07.31.31,0,.69,0,1.38,0,2.07a.94.94,0,1,0,1.86,0s0-1.13,0-2.09c0-.22.07-.29.28-.28h.38a1.06,1.06,0,0,0,1-1.05V27.66A1.05,1.05,0,0,0,39.86,26.61ZM10.78,15.12v-1h1.05A1,1,0,0,0,10.78,15.12Zm26.4,11.49H13c-.32,0-.4-.09-.39-.4A2.09,2.09,0,0,1,14.21,24a2.35,2.35,0,0,1,.65-.06c6.76,0,13.52,0,20.27,0a2.16,2.16,0,0,1,2.24,2.51C37.36,26.57,37.31,26.62,37.18,26.61ZM16.3,21.78c0-.71,0-1.42,0-2.14,0-.18,0-.25.24-.25h5.37c.18,0,.25.05.25.24,0,.74,0,1.47,0,2.21,0,.2-.08.24-.26.24H16.6C16.37,22.08,16.3,22,16.3,21.78Zm11.53-2.14c0-.22.09-.25.28-.25h5.3c.22,0,.29.06.29.28,0,.71,0,1.42,0,2.14,0,.19-.05.27-.26.27H28.1c-.2,0-.27-.06-.27-.27C27.84,21.09,27.85,20.37,27.83,19.64Zm9.53,2.81c0,.05,0,.1,0,.19a4.34,4.34,0,0,0-1.68-.56c-.18,0-.11-.17-.11-.27,0-1.29,0-2.59,0-3.88,0-.31-.07-.4-.39-.4-2.94,0-5.87,0-8.81,0-.32,0-.37.1-.37.38,0,1.29,0,2.57,0,3.85,0,.25-.06.33-.31.32-.45,0-.91,0-1.37,0-.26,0-.3-.09-.3-.32,0-1.31,0-2.61,0-3.91,0-.25-.06-.32-.31-.31H14.77c-.27,0-.32.1-.32.34,0,1.31,0,2.61,0,3.91,0,.22,0,.32-.27.33a4.2,4.2,0,0,0-1.54.52c0-.12,0-.19,0-.27q0-3.06,0-6.12c0-.25.07-.31.31-.31H37.07c.18,0,.3,0,.3.25Q37.36,19.31,37.36,22.45Z"/></svg>