<svg id="圖層_1" data-name="圖層 1" xmlns="http://www.w3.org/2000/svg" viewBox="0 0 50 50"><defs><style>.cls-1{fill:#fff;}</style></defs><path class="cls-1" d="M25,0A25,25,0,1,0,50,25,25,25,0,0,0,25,0ZM38.15,29.84a23.23,23.23,0,0,1-5.09,5.26c-3.58,2.76-7.82,4.68-9.38,4.68a.91.91,0,0,1-.91-.91V35.5a16.66,16.66,0,0,1-9.08-3.91,11.53,11.53,0,0,1-4.13-8.66,11.64,11.64,0,0,1,4.59-9A17.21,17.21,0,0,1,25,10.22a17.21,17.21,0,0,1,10.85,3.66,11.64,11.64,0,0,1,4.59,9A12.31,12.31,0,0,1,38.15,29.84Z"/><path class="cls-1" d="M34.59,15.44A15.16,15.16,0,0,0,25,12.22a15.16,15.16,0,0,0-9.59,3.22,9.62,9.62,0,0,0-3.85,7.49A9.54,9.54,0,0,0,15,30.09a14.82,14.82,0,0,0,8,3.43l1.76.2V37.5a27.43,27.43,0,0,0,7.07-4,21,21,0,0,0,4.65-4.78,10.36,10.36,0,0,0,1.95-5.8A9.62,9.62,0,0,0,34.59,15.44ZM19.48,26.74H16.41c-.48,0-.82-.28-.82-.67v-6.3c0-.39.36-.65.9-.65s.9.26.9.65V25.1h2.09c.39,0,.65.33.65.82S19.86,26.74,19.48,26.74Zm2.9-.67c0,.39-.38.67-.9.67s-.9-.27-.9-.67v-6.3c0-.39.36-.65.9-.65s.9.26.9.65Zm6.17,0c0,.39-.38.67-.9.67a1,1,0,0,1-1-.53l-1.57-2.95v2.81c0,.39-.38.67-.9.67s-.91-.27-.91-.67V19.78c0-.4.37-.66.91-.66s.84.18,1.18.81l1.36,2.63V19.77c0-.39.36-.65.9-.65s.9.26.9.65Zm3.92-3.91a.77.77,0,0,1,0,1.53h-1.2V25.1h2.47c.39,0,.67.35.67.83a.72.72,0,0,1-.67.81H30.29a.73.73,0,0,1-.82-.67V19.78a.73.73,0,0,1,.82-.66h3.45a.72.72,0,0,1,.67.81c0,.48-.28.83-.67.83H31.27v1.4Z"/></svg>