<svg id="圖層_1" data-name="圖層 1" xmlns="http://www.w3.org/2000/svg" viewBox="0 0 50 50"><defs><style>.cls-1{fill:#fff;}</style></defs><path class="cls-1" d="M23.49,0h3.12A2.45,2.45,0,0,0,27,.08,23.74,23.74,0,0,1,37.82,3.53a24.61,24.61,0,0,1,11.8,17.12c.17.91.25,1.83.38,2.74v3.12a2.57,2.57,0,0,0-.08.38,24.94,24.94,0,0,1-28.2,22.79,24.47,24.47,0,0,1-16.3-9.36A24.26,24.26,0,0,1,.23,22.45a24.06,24.06,0,0,1,6.11-14A24.48,24.48,0,0,1,20.8.38C21.69.22,22.59.12,23.49,0ZM10.65,25c.09,2.38.09,4.77.29,7.14A7.35,7.35,0,0,0,17.37,39a40,40,0,0,0,5.48.29c3.1,0,6.21,0,9.3-.21a7.2,7.2,0,0,0,6.31-4.33A8.85,8.85,0,0,0,39.27,31q.07-5,.08-10.08a30.12,30.12,0,0,0-.18-3.16,7.4,7.4,0,0,0-6.44-6.86,37.92,37.92,0,0,0-5.44-.29c-3.11,0-6.24,0-9.34.2a7.4,7.4,0,0,0-7,7C10.74,20.2,10.74,22.58,10.65,25Z"/><path class="cls-1" d="M13.26,24.94c.06-2.17.07-4.33.2-6.48a5.05,5.05,0,0,1,5.1-5.1,113.45,113.45,0,0,1,13,0,5,5,0,0,1,5,5.06q.18,6.49,0,13a4.93,4.93,0,0,1-5.11,5.11c-4.32.12-8.64.11-12.95,0a5,5,0,0,1-5.11-5.07C13.33,29.29,13.32,27.11,13.26,24.94ZM25,17.6A7.35,7.35,0,1,0,32.4,25,7.33,7.33,0,0,0,25,17.6Zm9.37-.31a1.71,1.71,0,1,0-3.42,0,1.71,1.71,0,1,0,3.42,0Z"/><path class="cls-1" d="M25,29.73A4.78,4.78,0,1,1,29.82,25,4.8,4.8,0,0,1,25,29.73Z"/></svg>