<svg id="圖層_1" data-name="圖層 1" xmlns="http://www.w3.org/2000/svg" viewBox="0 0 50 50"><defs><style>.cls-1{fill:#fff;}</style></defs><path class="cls-1" d="M25,0A25,25,0,1,0,50,25,25,25,0,0,0,25,0Zm8.1,15.21a.61.61,0,0,1-.61.61H29.87c-1.8,0-2.13.71-2.13,2.09v2.88h4.57a.61.61,0,0,1,.61.61v4.93a.61.61,0,0,1-.61.61H27.74V39.37a.61.61,0,0,1-.61.61H22a.61.61,0,0,1-.61-.61V26.94H17.51a.61.61,0,0,1-.61-.61V21.4a.61.61,0,0,1,.61-.61h3.91v-3.4c0-4.48,2.82-7.37,7.18-7.37h3.89a.61.61,0,0,1,.61.61Z"/></svg>