<?xml version="1.0" encoding="utf-8"?>
<!-- Generator: Adobe Illustrator 24.1.0, SVG Export Plug-In . SVG Version: 6.00 Build 0)  -->
<svg version="1.1" id="圖層_1" xmlns="http://www.w3.org/2000/svg" xmlns:xlink="http://www.w3.org/1999/xlink" x="0px" y="0px"
	 viewBox="0 0 24 24" style="enable-background:new 0 0 24 24;" xml:space="preserve">
<style type="text/css">
	.st0{fill:none;}
	.st1{fill:#8EA3B4;}
</style>
<path class="st0" d="M0,0h24v24H0V0z"/>
<path class="st1" d="M4,18h16c0.6,0,1-0.4,1-1v0c0-0.6-0.4-1-1-1H4c-0.6,0-1,0.4-1,1v0C3,17.6,3.4,18,4,18z M4,13h16
	c0.6,0,1-0.4,1-1v0c0-0.6-0.4-1-1-1H4c-0.6,0-1,0.4-1,1v0C3,12.6,3.4,13,4,13z M3,7L3,7c0,0.6,0.4,1,1,1h16c0.6,0,1-0.4,1-1v0
	c0-0.6-0.4-1-1-1H4C3.4,6,3,6.4,3,7z"/>
</svg>
