<svg id="圖層_1" data-name="圖層 1" xmlns="http://www.w3.org/2000/svg" viewBox="0 0 50 50"><defs><style>.cls-1{fill:#8da3b5;}</style></defs><path class="cls-1" d="M25,0A25,25,0,1,0,50,25,25,25,0,0,0,25,0Zm0,48A23,23,0,1,1,48,25,23,23,0,0,1,25,48Z"/><path class="cls-1" d="M39.12,13.57a.89.89,0,0,0-.88.88v2.64H20.46a4.42,4.42,0,0,0-4.31-3.52H11.76V10.88a.88.88,0,0,0-1.76,0V39.12a.88.88,0,0,0,1.76,0V32.91H25.88v6.21a.88.88,0,1,0,1.76,0V36.43h5.27v2.69a.88.88,0,0,0,1.76,0V32.91h3.57v6.21a.88.88,0,1,0,1.76,0V14.45A.88.88,0,0,0,39.12,13.57ZM11.76,15.33h4.39a2.65,2.65,0,0,1,2.49,1.76H11.76Zm0,14.06V27.64h4.39a2.64,2.64,0,0,1,2.49,1.75Zm14.12,0H20.46a4.41,4.41,0,0,0-4.31-3.51H11.76V20.61H25.88Zm7,5.28H27.64V32.91h5.27Zm0-3.52H27.64V29.39h5.27Zm0-3.51H27.64V25.88h5.27Zm0-3.52H27.64V22.36h5.27Zm0-3.51H27.64V18.85h5.27Zm5.33,8.78H34.67V20.61h3.57Z"/></svg>