<svg id="圖層_1" data-name="圖層 1" xmlns="http://www.w3.org/2000/svg" viewBox="0 0 50 50"><defs><style>.cls-1{fill:#8da3b5;}</style></defs><path class="cls-1" d="M25,0A25,25,0,1,0,50,25,25,25,0,0,0,25,0Zm0,48A23,23,0,1,1,48,25,23,23,0,0,1,25,48Z"/><path class="cls-1" d="M38.82,15.23H31a6,6,0,0,0-12,0H11.18a1,1,0,0,0-1,1v18a4.58,4.58,0,0,0,4.57,4.57H35.21a4.58,4.58,0,0,0,4.57-4.57v-18A1,1,0,0,0,38.82,15.23ZM19.59,20.4h0a.6.6,0,1,1-.6.6A.6.6,0,0,1,19.59,20.4ZM19,19.31a1.81,1.81,0,1,0,1.2,0V17.15h9.62v2.16A1.79,1.79,0,0,0,28.6,21,1.81,1.81,0,1,0,31,19.31V17.15h6.85V34.21a2.65,2.65,0,0,1-2.65,2.64H14.79a2.64,2.64,0,0,1-2.64-2.64V17.15H19ZM30.41,20.4h0a.6.6,0,1,1-.6.6A.6.6,0,0,1,30.41,20.4ZM25,10.78a4.8,4.8,0,0,1,4.77,4.45H20.23A4.8,4.8,0,0,1,25,10.78Z"/></svg>