<svg id="圖層_1" data-name="圖層 1" xmlns="http://www.w3.org/2000/svg" viewBox="0 0 50 50"><defs><style>.cls-1{fill:#8da3b5;}</style></defs><path class="cls-1" d="M25,0A25,25,0,1,0,50,25,25,25,0,0,0,25,0Zm0,48A23,23,0,1,1,48,25,23,23,0,0,1,25,48Z"/><path class="cls-1" d="M20.61,16.21v-4A2.19,2.19,0,0,0,18.42,10H15.76a2.18,2.18,0,0,0-2.18,2.19v4a7.07,7.07,0,0,0-3.51,6.09V40H24.12V22.3a7.07,7.07,0,0,0-3.51-6.09Zm-5.28-4.07a.43.43,0,0,1,.44-.38H18.4a.46.46,0,0,1,.45.46h0v3.65H15.33Zm7,26.1H11.82V22.3a5.32,5.32,0,0,1,2.84-4.68h4.86a5.32,5.32,0,0,1,2.84,4.68Z"/><path class="cls-1" d="M36.43,20.32V16.19a2.18,2.18,0,0,0-2.1-2.09h-.54V11.76h2.64a.88.88,0,0,0,0-1.76H25.88v1.76H32V14.1H31.5a2.19,2.19,0,0,0-2.11,2.12v4.1a7,7,0,0,0-3.51,6.09V40H39.94V26.41a7,7,0,0,0-3.51-6.09Zm-5.28-3.84a.62.62,0,0,1,.65-.62H34a.62.62,0,0,1,.65.62V20H31.15Zm7,21.76H27.64V26.41a5.29,5.29,0,0,1,2.84-4.68h4.86a5.29,5.29,0,0,1,2.84,4.68Z"/><path class="cls-1" d="M17.09,21.43a3.48,3.48,0,0,0-3.47,3.47v5.88a3.47,3.47,0,0,0,6.94,0V24.9A3.48,3.48,0,0,0,17.09,21.43Zm2,9.35a2,2,0,1,1-3.94,0V24.9a2,2,0,1,1,3.94,0Z"/><path class="cls-1" d="M33.17,24.65h-.52a3.22,3.22,0,0,0-3.21,3.21v4.53a3.21,3.21,0,0,0,3.21,3.21h.52a3.21,3.21,0,0,0,3.21-3.21V27.86A3.22,3.22,0,0,0,33.17,24.65Zm1.71,7.74a1.71,1.71,0,0,1-1.71,1.71h-.52a1.71,1.71,0,0,1-1.71-1.71V27.86a1.71,1.71,0,0,1,1.71-1.71h.52a1.71,1.71,0,0,1,1.71,1.71Z"/><path class="cls-1" d="M25,12.5a.92.92,0,1,0,.92.92A.92.92,0,0,0,25,12.5Z"/><path class="cls-1" d="M21.58,9.83A1.83,1.83,0,1,0,19.75,8,1.84,1.84,0,0,0,21.58,9.83Zm0-2.66a.83.83,0,1,1,0,1.66.83.83,0,0,1,0-1.66Z"/></svg>