<svg id="圖層_1" data-name="圖層 1" xmlns="http://www.w3.org/2000/svg" viewBox="0 0 50 50"><defs><style>.cls-1{fill:#8da3b5;}</style></defs><path class="cls-1" d="M25,0A25,25,0,1,0,50,25,25,25,0,0,0,25,0Zm0,48A23,23,0,1,1,48,25,23,23,0,0,1,25,48Z"/><path class="cls-1" d="M39.49,25.13H25.3a.63.63,0,0,0-.63.63V30.2h-.76v-12a.7.7,0,0,0-.05-.25l-1.47-3.42V12.08a.63.63,0,0,0-.63-.63H12.64a.63.63,0,0,0-.63.63v2.41l-1.47,3.42a.7.7,0,0,0,0,.25V35.51a1.72,1.72,0,0,0,1.11,3H36.46A.62.62,0,0,0,37,38.2l.84-1.67h2.27V35.26H35.78a5.21,5.21,0,0,0,1.78-3.36,3.15,3.15,0,0,0,2.57-3.1v-3A.64.64,0,0,0,39.49,25.13Zm-.63,1.26V28.8a1.91,1.91,0,0,1-1.27,1.79v-4.2ZM36.44,36.53l-.38.76H26.71l-.38-.76Zm-11.52,0,.38.76H18.91L18.19,32a.48.48,0,0,1,.41-.53h6.07a5.2,5.2,0,0,0,1.81,3.8H22.65v1.27Zm7.47-1.27H29.87a4,4,0,0,1-3.94-3.93V26.39h10.4v4.94A4,4,0,0,1,32.39,35.26Zm-19-1.86-1.67,1.19V18.79h7.86V30.2h-.95a1.68,1.68,0,0,0-1.6,1.08L14.65,32A1.72,1.72,0,0,0,13.42,33.4ZM15,33.18l2-.57.64,4.68H15.38l-.71-3.57A.47.47,0,0,1,15,33.18Zm5.87-3V18.79h1.78V30.2ZM12.08,17.53l1-2.29H20.8l-1,2.29Zm9.12,0,.56-1.31.56,1.31ZM13.27,14V12.71h7.86V14Zm.83,23.31H11.6a.46.46,0,0,1-.44-.32.47.47,0,0,1,.17-.53l2.27-1.62Z"/><path class="cls-1" d="M28,30.83V30.2H26.69v.63a3.69,3.69,0,0,0,3.67,3.67H31V33.24h-.64A2.42,2.42,0,0,1,28,30.83Z"/><rect class="cls-1" x="26.69" y="28.17" width="1.26" height="1.26"/><path class="cls-1" d="M28,24.24a1.4,1.4,0,0,1,1.4-1.4h7.35a1.9,1.9,0,0,0,0-3.79H30.63a.64.64,0,0,1-.64-.64.64.64,0,0,1,.64-.63h2.28a2.66,2.66,0,0,0,2.65-2.66V15H34.3v.13a1.39,1.39,0,0,1-1.39,1.39H30.63a1.9,1.9,0,0,0,0,3.8h6.08a.64.64,0,0,1,.63.64.63.63,0,0,1-.63.63H29.36a2.67,2.67,0,0,0-2.66,2.66v.12H28Z"/><path class="cls-1" d="M15.68,25.38a2.16,2.16,0,1,0-2.15-2.15A2.15,2.15,0,0,0,15.68,25.38Zm-.89-2.15a.89.89,0,1,1,.89.88A.89.89,0,0,1,14.79,23.23Z"/><rect class="cls-1" x="13.53" y="26.14" width="4.3" height="1.26"/><rect class="cls-1" x="13.53" y="28.17" width="4.3" height="1.26"/></svg>