<svg id="圖層_1" data-name="圖層 1" xmlns="http://www.w3.org/2000/svg" viewBox="0 0 50 50"><defs><style>.cls-1{fill:#8da3b5;}</style></defs><path class="cls-1" d="M25,0A25,25,0,1,0,50,25,25,25,0,0,0,25,0Zm0,48A23,23,0,1,1,48,25,23,23,0,0,1,25,48Z"/><path class="cls-1" d="M33.12,10H16.87a3.12,3.12,0,0,0-3.12,3.12V36.88A3.12,3.12,0,0,0,16.87,40H33.12a3.13,3.13,0,0,0,3.13-3.12V13.12A3.13,3.13,0,0,0,33.12,10ZM35,36.88a1.88,1.88,0,0,1-1.88,1.87H16.87A1.87,1.87,0,0,1,15,36.88V13.12a1.87,1.87,0,0,1,1.87-1.87H33.12A1.88,1.88,0,0,1,35,13.12Z"/><path class="cls-1" d="M19.4,23.15a26.25,26.25,0,0,0,5.6.61,26.32,26.32,0,0,0,5.6-.61h0a.81.81,0,0,0,.64-.8V15.16a.82.82,0,0,0-.65-.81,26.16,26.16,0,0,0-11.21,0,.82.82,0,0,0-.64.81v7.18A.82.82,0,0,0,19.4,23.15ZM20,15.5a24.76,24.76,0,0,1,10,0V22a24.76,24.76,0,0,1-10,0Z"/><path class="cls-1" d="M23.12,16.25a.63.63,0,0,0-.62.63v3.74a.63.63,0,1,0,1.25,0V16.88A.63.63,0,0,0,23.12,16.25Z"/><path class="cls-1" d="M26.87,21.25a.63.63,0,0,0,.63-.63V16.88a.63.63,0,1,0-1.25,0v3.74A.63.63,0,0,0,26.87,21.25Z"/><path class="cls-1" d="M30.81,28.65H19.19a.6.6,0,0,0-.6.6v5.87a.6.6,0,0,0,.6.6H30.81a.6.6,0,0,0,.6-.6V29.25A.6.6,0,0,0,30.81,28.65Zm-.6,5.88H19.79V29.85H30.21Z"/><rect class="cls-1" x="21.12" y="31.5" width="7.75" height="2.25"/></svg>